<svg width="24" height="24" viewBox="0 0 24 24" fill="none" xmlns="http://www.w3.org/2000/svg">
<ellipse cx="6" cy="9.5" rx="4" ry="3.5" fill="#F8CF33"/>
<ellipse cx="18" cy="9.5" rx="4" ry="3.5" fill="#F8CF33"/>
<circle cx="12" cy="16" r="4" fill="#F8CF33"/>
<path d="M7.94188 2L9.82188 3.88M14.0619 3.88L15.9419 2M8.94188 7V6C8.94188 5.20435 9.25795 4.44129 9.82056 3.87868C10.3832 3.31607 11.1462 3 11.9419 3C12.7375 3 13.5006 3.31607 14.0632 3.87868C14.6258 4.44129 14.9419 5.20435 14.9419 6V7M7.50188 12H16.3719M7.44188 17H16.4419M4.94188 7C4.44984 7.00953 3.9677 7.13997 3.53797 7.37981C3.10824 7.61964 2.74411 7.96151 2.47767 8.37529C2.21124 8.78906 2.05069 9.26202 2.01018 9.75248C1.96967 10.2429 2.05044 10.7358 2.24537 11.1877C2.4403 11.6396 2.7434 12.0366 3.12795 12.3437C3.51251 12.6508 3.96671 12.8585 4.45051 12.9487C4.93432 13.0388 5.43287 13.0086 5.90222 12.8606C6.37156 12.7126 6.79729 12.4514 7.14188 12.1C9.04188 10 11.9419 7 11.9419 7C11.9419 7 14.8419 10 16.7419 12.1C17.0865 12.4514 17.5122 12.7126 17.9815 12.8606C18.4509 13.0086 18.9494 13.0388 19.4332 12.9487C19.917 12.8585 20.3712 12.6508 20.7558 12.3437C21.1404 12.0366 21.4435 11.6396 21.6384 11.1877C21.8333 10.7358 21.9141 10.2429 21.8736 9.75248C21.8331 9.26202 21.6725 8.78906 21.4061 8.37529C21.1396 7.96151 20.7755 7.61964 20.3458 7.37981C19.9161 7.13997 19.4339 7.00953 18.9419 7H4.94188Z" stroke="#F8CF33" stroke-width="2" stroke-linecap="round" stroke-linejoin="round"/>
<mask id="path-5-inside-1_378_4357" fill="white">
<path d="M15.5 10.7C16.4 11.6 16.9 12.8 17 14C17 19.8 12 22 12 22C12 22 7 19.8 7 14C7.1 12.8 7.6 11.6 8.5 10.7"/>
</mask>
<path d="M16.9142 9.28574C16.1332 8.50469 14.8668 8.50469 14.0858 9.28574C13.3047 10.0668 13.3047 11.3331 14.0858 12.1142L16.9142 9.28574ZM17 14H19C19 13.9445 18.9977 13.8891 18.9931 13.8339L17 14ZM12 22L11.1945 23.8306C11.7078 24.0564 12.2922 24.0564 12.8055 23.8306L12 22ZM7 14L5.00691 13.8339C5.0023 13.8891 5 13.9445 5 14H7ZM9.91421 12.1142C10.6953 11.3331 10.6953 10.0668 9.91421 9.28574C9.13316 8.50469 7.86683 8.50469 7.08579 9.28574L9.91421 12.1142ZM14.0858 12.1142C14.6198 12.6482 14.9423 13.391 15.0069 14.166L18.9931 13.8339C18.8577 12.2089 18.1802 10.5517 16.9142 9.28574L14.0858 12.1142ZM15 14C15 16.2608 14.0451 17.7821 13.0719 18.7748C12.577 19.2796 12.0798 19.6424 11.7111 19.8759C11.5282 19.9918 11.3813 20.073 11.2882 20.1217C11.2417 20.146 11.2091 20.162 11.1926 20.1698C11.1844 20.1738 11.1803 20.1757 11.1805 20.1756C11.1806 20.1755 11.1818 20.175 11.1841 20.174C11.1853 20.1734 11.1867 20.1728 11.1884 20.172C11.1893 20.1716 11.1903 20.1712 11.1913 20.1708C11.1918 20.1705 11.1926 20.1702 11.1928 20.1701C11.1937 20.1697 11.1945 20.1693 12 22C12.8055 23.8306 12.8064 23.8302 12.8073 23.8298C12.8076 23.8296 12.8085 23.8292 12.8092 23.8289C12.8105 23.8284 12.8119 23.8277 12.8134 23.8271C12.8163 23.8258 12.8196 23.8243 12.8231 23.8227C12.8303 23.8195 12.8387 23.8157 12.8482 23.8113C12.8673 23.8026 12.8913 23.7914 12.9197 23.7778C12.9764 23.7506 13.0512 23.7137 13.1415 23.6664C13.3218 23.5722 13.5655 23.4363 13.8514 23.2552C14.4202 22.895 15.173 22.3453 15.9281 21.5751C17.4549 20.0178 19 17.5391 19 14H15ZM12 22C12.8055 20.1693 12.8063 20.1697 12.8072 20.1701C12.8074 20.1702 12.8082 20.1705 12.8087 20.1708C12.8097 20.1712 12.8107 20.1716 12.8116 20.172C12.8133 20.1728 12.8147 20.1734 12.8159 20.174C12.8182 20.175 12.8194 20.1755 12.8195 20.1756C12.8197 20.1757 12.8156 20.1738 12.8074 20.1698C12.7909 20.162 12.7583 20.146 12.7118 20.1217C12.6187 20.073 12.4718 19.9918 12.2889 19.8759C11.9202 19.6424 11.423 19.2796 10.9281 18.7748C9.95493 17.7821 9 16.2608 9 14H5C5 17.5391 6.54507 20.0178 8.07185 21.5751C8.82697 22.3453 9.57981 22.895 10.1486 23.2552C10.4345 23.4363 10.6782 23.5722 10.8585 23.6664C10.9488 23.7137 11.0236 23.7506 11.0803 23.7778C11.1087 23.7914 11.1327 23.8026 11.1518 23.8113C11.1613 23.8157 11.1697 23.8195 11.1769 23.8227C11.1804 23.8243 11.1837 23.8258 11.1866 23.8271C11.1881 23.8277 11.1895 23.8284 11.1908 23.8289C11.1915 23.8292 11.1924 23.8296 11.1927 23.8298C11.1936 23.8302 11.1945 23.8306 12 22ZM8.99309 14.166C9.05767 13.391 9.38022 12.6482 9.91421 12.1142L7.08579 9.28574C5.81978 10.5517 5.14233 12.2089 5.00691 13.8339L8.99309 14.166Z" fill="#F8CF33" mask="url(#path-5-inside-1_378_4357)"/>
</svg>
