<svg width="29" height="28" viewBox="0 0 29 28" fill="none" xmlns="http://www.w3.org/2000/svg">
<path fill-rule="evenodd" clip-rule="evenodd" d="M13.8817 2.51067C14.0671 2.39478 14.2813 2.33333 14.5 2.33333C14.7187 2.33333 14.9329 2.39478 15.1183 2.51067L23.173 7.54484L14.5 12.6467L5.827 7.54484L13.8817 2.51067ZM4.00934 9.18284C4.00298 9.23275 3.99987 9.28302 4 9.33334V18.6667C4 18.8645 4.05033 19.0592 4.14625 19.2322C4.24218 19.4053 4.38054 19.5511 4.54834 19.656L13.3333 25.1463V14.6673L4.00934 9.18284ZM15.6667 25.1463L21.5 22.4998C18 19.4998 20.5 16.4998 20.5 16.4998C20.5 16.4998 23.5 14.4998 25.5 16.4998L25 9.33334C25 9.28278 24.9969 9.23261 24.9907 9.18284L15.6667 14.6662V25.1463Z" fill="#1A72DD"/>
<path d="M22.994 16.5V21.5M20.5 19.005H25.5" stroke="#1A72DD" stroke-width="1.5" stroke-miterlimit="10" stroke-linecap="round"/>
</svg>
