<svg width="162" height="162" viewBox="0 0 162 162" fill="none" xmlns="http://www.w3.org/2000/svg">
<circle cx="81" cy="81" r="80.5" fill="#2171C6" fill-opacity="0.05"/>
<circle cx="81" cy="81" r="62.5" fill="#2171C6" fill-opacity="0.1"/>
<circle cx="80.9207" cy="80.9207" r="48.4207" fill="url(#paint0_linear_83_9753)"/>
<mask id="mask0_83_9753" style="mask-type:alpha" maskUnits="userSpaceOnUse" x="32" y="32" width="98" height="98">
<circle cx="80.9207" cy="80.9207" r="48.4207" fill="url(#paint1_linear_83_9753)"/>
</mask>
<g mask="url(#mask0_83_9753)">
<path d="M117.417 109.867C115.668 108.063 114.331 105.903 113.508 103.528C113.48 103.584 113.442 103.64 113.414 103.696C113.63 103.649 113.835 103.612 114.05 103.565C114.172 103.537 114.191 103.369 114.088 103.312C113.284 102.882 113.19 101.498 113.012 100.704C112.779 99.6657 112.563 98.6277 112.376 97.5898C111.984 95.4578 111.685 93.3071 111.469 91.147C111.395 91.1844 111.329 91.2312 111.254 91.2686C112.816 92.1943 114.303 93.2323 115.696 94.4011C116.949 95.4578 118.202 96.5892 119.09 97.9731C120.044 99.4412 120.502 101.218 120.783 102.92C121.101 104.799 121.101 106.716 120.652 108.577C120.605 108.755 120.876 108.83 120.923 108.652C121.624 105.819 121.269 102.798 120.371 100.049C119.502 97.4214 117.538 95.5232 115.434 93.8214C114.163 92.7928 112.807 91.8577 111.404 91.0254C111.32 90.9787 111.18 91.0348 111.189 91.147C111.413 93.4567 111.741 95.7476 112.171 98.0199C112.386 99.1514 112.62 100.283 112.891 101.396C113.068 102.153 113.19 103.144 113.947 103.556C113.957 103.471 113.966 103.387 113.985 103.303C113.77 103.35 113.564 103.387 113.349 103.434C113.274 103.453 113.227 103.537 113.255 103.602C114.097 106.024 115.453 108.222 117.239 110.064C117.351 110.195 117.548 109.998 117.417 109.867Z" fill="#E8E8E8"/>
<path d="M111.498 91.3808C114.883 96.2807 117.22 101.854 118.342 107.698C118.38 107.876 118.651 107.801 118.614 107.623C117.482 101.751 115.135 96.1498 111.731 91.2312C111.638 91.0909 111.395 91.2312 111.498 91.3808Z" fill="#E8E8E8"/>
<path d="M112.62 99.4413C114.032 99.7499 115.519 100.096 116.501 101.246C116.613 101.386 116.819 101.181 116.697 101.05C115.687 99.8621 114.154 99.4881 112.695 99.1702C112.517 99.1328 112.442 99.4039 112.62 99.4413Z" fill="#E8E8E8"/>
<path d="M116.341 99.4599C116.238 98.1507 116.444 96.851 116.968 95.6447C117.043 95.4764 116.799 95.3361 116.725 95.5044C116.182 96.7575 115.948 98.0946 116.061 99.4599C116.079 99.6375 116.36 99.6375 116.341 99.4599Z" fill="#E8E8E8"/>
<path d="M118.595 96.8886C119.269 92.6994 122.139 89.4453 124.889 86.4062C124.814 86.3595 124.73 86.3127 124.655 86.266C124.01 88.5756 125.524 90.717 126.076 92.8864C126.375 94.0833 126.516 95.3176 126.544 96.5519C126.562 97.1597 126.553 97.7769 126.534 98.3847C126.525 98.6839 126.525 98.9925 126.46 99.2824C126.366 99.6845 125.917 100.311 125.44 99.8902C125.384 99.965 125.328 100.04 125.272 100.115C126.095 100.545 125.796 101.779 125.665 102.499C125.496 103.472 125.216 104.397 124.589 105.183C123.682 106.305 122.383 107.137 121.952 108.577C121.896 108.755 122.168 108.82 122.224 108.652C122.757 106.894 124.636 106.052 125.412 104.425C125.814 103.584 125.992 102.593 126.076 101.676C126.142 101.012 126.076 100.217 125.412 99.8808C125.281 99.8154 125.113 99.9931 125.244 100.105C125.534 100.367 125.936 100.367 126.263 100.152C126.628 99.9089 126.74 99.4601 126.777 99.0393C126.927 97.6273 126.862 96.1405 126.693 94.7379C126.525 93.3352 126.151 92.0168 125.627 90.717C125.076 89.3331 124.505 87.865 124.926 86.3595C124.963 86.2286 124.786 86.1164 124.692 86.2192C121.915 89.2957 119.007 92.5965 118.324 96.8231C118.296 96.9914 118.567 97.0662 118.595 96.8886Z" fill="#E8E8E8"/>
<path d="M124.336 87.2197C122.391 92.0167 121.185 97.0848 120.755 102.247C120.736 102.424 121.017 102.424 121.035 102.247C121.465 97.1129 122.672 92.0728 124.607 87.2945C124.673 87.1355 124.402 87.0607 124.336 87.2197Z" fill="#E8E8E8"/>
<path d="M97.6117 101.91C99.9027 102.405 102.138 101.302 104.344 100.863C106.776 100.386 109.282 100.386 111.722 100.825C111.9 100.853 111.975 100.591 111.797 100.554C109.534 100.142 107.224 100.114 104.962 100.47C103.802 100.657 102.68 100.975 101.558 101.293C100.295 101.639 98.9957 101.919 97.6959 101.639C97.5089 101.601 97.4341 101.863 97.6117 101.91Z" fill="#E8E8E8"/>
<path d="M126.244 101.05C127.572 100.797 128.881 101.115 130.162 101.433C131.415 101.732 132.677 102.003 133.958 102.228C136.427 102.658 138.933 102.911 141.439 103.013C141.617 103.023 141.617 102.742 141.439 102.733C138.774 102.63 136.128 102.34 133.5 101.863C132.228 101.629 130.975 101.34 129.722 101.04C128.554 100.76 127.366 100.554 126.169 100.788C126.001 100.816 126.076 101.087 126.244 101.05Z" fill="#E8E8E8"/>
<path d="M20.5514 93.2137C23.8616 92.447 27.1718 91.5586 30.5288 91.0724C33.8764 90.5955 37.2708 90.5394 40.6464 90.8293C47.1359 91.3903 53.4384 93.0922 59.797 94.4106C63.3036 95.14 66.8476 95.7385 70.4289 95.9816C70.6066 95.9909 70.6066 95.7104 70.4289 95.7011C63.8646 95.2522 57.4873 93.5784 51.0726 92.2132C44.6953 90.8667 38.2058 89.8942 31.6789 90.6422C27.8918 91.0817 24.1889 92.0823 20.4766 92.9425C20.2989 92.98 20.3737 93.2511 20.5514 93.2137Z" fill="#E8E8E8"/>
<path d="M47.1079 91.3807C52.5968 90.9038 57.9736 89.6134 63.2942 88.2295C68.7364 86.8082 74.1786 85.3681 79.6208 83.9281C85.0537 82.4974 90.4772 81.0293 95.9288 79.636C98.6405 78.9441 101.38 78.3176 104.167 78.0557C106.851 77.8033 109.562 77.8407 112.246 78.0931C118.511 78.6729 124.608 80.3467 130.658 82.0112C130.836 82.0579 130.91 81.7867 130.733 81.74C125.412 80.2719 120.063 78.8038 114.574 78.0744C111.844 77.7098 109.076 77.5227 106.318 77.6349C103.606 77.7378 100.931 78.168 98.2852 78.7664C95.5921 79.3836 92.9271 80.1223 90.2528 80.8329C87.5223 81.553 84.7919 82.273 82.0614 82.993C76.5444 84.4424 71.018 85.9011 65.501 87.3505C59.451 88.9402 53.3636 90.5485 47.1079 91.0909C46.9302 91.1189 46.9302 91.3994 47.1079 91.3807Z" fill="#E8E8E8"/>
<path d="M32.0432 108.194C34.3248 108.278 36.6158 108.362 38.8974 108.446C41.1229 108.53 43.3578 108.661 45.5833 108.68C47.7527 108.699 49.8473 108.278 51.9793 107.894C54.2048 107.492 56.4584 107.203 58.7119 107.044C61.2273 106.857 63.752 106.828 66.2674 106.931C66.4451 106.941 66.4451 106.66 66.2674 106.651C61.8538 106.464 57.4309 106.716 53.0733 107.427C50.8478 107.792 48.641 108.353 46.3875 108.399C44.1807 108.456 41.9458 108.287 39.739 108.203C37.1769 108.11 34.6147 108.016 32.0526 107.923C31.8656 107.904 31.8656 108.184 32.0432 108.194Z" fill="#E8E8E8"/>
<path d="M29.191 114.075C30.0045 111.943 31.4352 110.083 33.296 108.764C33.2306 108.745 33.1651 108.727 33.0996 108.717C33.6233 109.914 33.9786 111.167 34.1656 112.458C34.1937 112.402 34.2311 112.345 34.2591 112.289C34.0347 112.355 33.8103 112.42 33.5765 112.486C33.483 112.514 33.455 112.607 33.4924 112.691C33.7542 113.318 34.0441 114.029 33.7542 114.693C33.5111 115.244 32.9874 115.656 32.6227 116.114C31.9588 116.937 31.4445 117.853 31.0518 118.826C30.9863 118.994 31.2575 119.069 31.323 118.9C31.8466 117.582 32.6321 116.535 33.5578 115.478C33.8945 115.095 34.1469 114.674 34.1656 114.15C34.1843 113.589 33.9506 113.056 33.7355 112.551C33.7074 112.617 33.6794 112.691 33.6513 112.757C33.8758 112.691 34.1002 112.626 34.334 112.561C34.4088 112.542 34.4462 112.467 34.4275 112.392C34.2311 111.074 33.8664 109.802 33.3334 108.577C33.3054 108.512 33.2025 108.484 33.137 108.53C31.2108 109.905 29.7427 111.803 28.9011 114.01C28.8637 114.169 29.1255 114.244 29.191 114.075Z" fill="#E8E8E8"/>
<path d="M24.8336 105.323C28.1064 104.687 31.454 104.444 34.7455 105.071C36.2791 105.36 37.7939 105.697 39.3462 105.875C40.9826 106.062 42.6377 106.137 44.2834 106.202C44.4611 106.211 44.4611 105.931 44.2834 105.921C42.6377 105.847 40.9826 105.781 39.3462 105.594C37.6443 105.398 35.9799 104.996 34.2874 104.706C31.1268 104.163 27.882 104.453 24.7588 105.061C24.5811 105.089 24.656 105.36 24.8336 105.323Z" fill="#E8E8E8"/>
<path d="M37.1676 116.441C39.0378 116.142 40.908 115.833 42.7968 115.721C44.7138 115.609 46.5652 115.768 48.4448 116.114C50.1653 116.432 51.8298 116.582 53.5877 116.544C55.4112 116.497 57.2533 116.413 59.0299 116.89C59.2076 116.937 59.2824 116.666 59.1047 116.619C57.3842 116.151 55.6169 116.207 53.8496 116.254C52.9145 116.282 51.97 116.292 51.0349 116.217C50.0718 116.142 49.118 115.946 48.1736 115.777C46.3595 115.45 44.5548 115.328 42.7033 115.441C40.8238 115.562 38.9536 115.861 37.0928 116.161C36.9151 116.198 36.9899 116.469 37.1676 116.441Z" fill="#E8E8E8"/>
<path d="M88.5699 118.676C92.0765 118.171 95.6018 117.872 99.1458 117.797C102.596 117.722 106.047 117.863 109.497 117.937C109.675 117.937 109.675 117.657 109.497 117.657C105.991 117.582 102.475 117.442 98.9588 117.526C95.4522 117.61 91.9643 117.909 88.4951 118.405C88.3175 118.433 88.3923 118.695 88.5699 118.676Z" fill="#E8E8E8"/>
<path d="M104.111 120.687C105.448 120.116 106.888 120.808 108.263 120.743C108.552 120.724 108.852 120.687 109.132 120.593C109.516 120.462 109.871 120.256 110.282 120.238C110.993 120.2 111.657 120.471 112.368 120.359C112.545 120.331 112.47 120.06 112.293 120.088C111.498 120.219 110.722 119.826 109.936 120.004C109.581 120.079 109.263 120.266 108.917 120.369C108.562 120.462 108.197 120.481 107.832 120.471C106.533 120.415 105.233 119.92 103.961 120.462C103.812 120.509 103.952 120.752 104.111 120.687Z" fill="#E8E8E8"/>
<path d="M123.027 110.354C125.383 109.652 127.74 109.671 130.152 109.961C132.425 110.232 134.716 110.588 136.997 110.185C137.175 110.157 137.1 109.886 136.922 109.914C134.547 110.335 132.163 109.905 129.797 109.643C127.469 109.381 125.196 109.409 122.943 110.092C122.784 110.139 122.849 110.41 123.027 110.354Z" fill="#E8E8E8"/>
<path d="M113.63 56.8855C111.89 55.9504 110.759 54.1363 111.021 52.1259C111.254 50.2837 112.732 48.6941 114.537 48.264C116.379 47.8338 118.436 48.7035 119.437 50.3025C120.512 52.0137 120.278 54.2766 118.96 55.7914C117.463 57.512 114.845 57.7738 112.956 56.5582C112.807 56.4553 112.666 56.6984 112.816 56.8013C114.574 57.9421 117.005 57.8673 118.632 56.5114C120.25 55.1649 120.848 52.8272 120.044 50.8729C119.278 49.012 117.314 47.7964 115.303 47.8806C113.321 47.9741 111.526 49.4048 110.927 51.2843C110.179 53.6127 111.432 56.0065 113.499 57.1192C113.648 57.2127 113.789 56.9696 113.63 56.8855Z" fill="#E8E8E8"/>
<path d="M32.9222 77.3359C33.8759 76.485 35.2131 77.0647 35.9238 77.925C36.2885 78.3645 36.5035 78.8601 36.7841 79.3463C36.9617 79.6736 37.2236 80.0009 37.6163 80.0757C37.9249 80.1318 38.1773 80.0196 38.3831 79.7952C38.514 79.6456 38.5981 79.4492 38.7291 79.2996C39.0096 78.9723 39.3743 79.0097 39.6735 79.2715C40.3281 79.8419 40.3561 81.2539 41.5063 81.1511C41.6839 81.1323 41.6839 80.8518 41.5063 80.8705C40.3093 80.9827 40.4496 78.9723 39.2995 78.7759C38.9628 78.7198 38.6916 78.8694 38.4859 79.1313C38.355 79.2996 38.2709 79.5334 38.1025 79.6736C37.6163 80.0757 37.1862 79.5146 36.9898 79.1313C36.5129 78.2523 36.0453 77.3359 35.1009 76.8777C34.3248 76.5037 33.3804 76.5411 32.7258 77.1302C32.5949 77.2517 32.7912 77.4575 32.9222 77.3359Z" fill="#E8E8E8"/>
<path d="M95.8625 64.7495C95.6755 64.2446 95.4511 63.6461 95.7877 63.1505C96.0963 62.711 96.62 62.9354 97.0595 62.7952C97.6392 62.6082 97.9945 62.0378 98.1535 61.4861C98.3405 60.8408 98.1161 59.9993 98.4995 59.4289C98.967 58.7276 99.9769 59.5878 100.613 59.1577C100.762 59.0548 100.622 58.8117 100.473 58.9146C99.8273 59.3541 98.9483 58.4564 98.3405 59.1764C97.8543 59.7468 98.0787 60.6164 97.9197 61.2897C97.8075 61.7572 97.5551 62.2528 97.1156 62.4773C96.7322 62.6736 96.2927 62.4773 95.9093 62.6736C95.0864 63.0944 95.3482 64.1417 95.6007 64.8243C95.6475 64.9833 95.9187 64.9178 95.8625 64.7495Z" fill="#E8E8E8"/>
<path d="M96.8723 58.1945C96.6947 57.727 96.7975 57.194 97.1435 56.82C97.5737 56.3524 98.0693 56.5394 98.6023 56.3524C98.9202 56.2402 99.1072 55.969 99.2288 55.6698C99.3036 55.4828 99.3503 55.2864 99.4158 55.0994C99.4719 54.9498 99.5373 54.7815 99.6495 54.6693C99.8179 54.5103 100.22 54.3794 100.323 54.7347C100.379 54.903 100.641 54.8376 100.594 54.6599C100.472 54.2672 100.014 54.1269 99.6589 54.3139C98.9856 54.6599 99.2288 55.6885 98.6023 56.0345C98.2563 56.2215 97.8261 56.1093 97.4614 56.2589C97.2277 56.3618 97.022 56.5301 96.863 56.7264C96.517 57.1659 96.4048 57.7457 96.6012 58.2693C96.6573 58.4377 96.9284 58.3628 96.8723 58.1945Z" fill="#E8E8E8"/>
<path d="M104.746 68.1813C104.466 67.7792 104.55 67.2088 104.915 66.8722C105.335 66.4795 105.943 66.6571 106.233 67.106C106.897 68.1065 105.429 68.9855 104.728 68.1533C104.606 68.013 104.41 68.2187 104.531 68.3496C104.933 68.8265 105.681 68.8826 106.196 68.546C106.776 68.172 106.822 67.4145 106.42 66.8815C106.027 66.3579 105.298 66.1802 104.774 66.6104C104.279 67.0125 104.129 67.7792 104.503 68.3122C104.606 68.4712 104.849 68.3309 104.746 68.1813Z" fill="#E8E8E8"/>
<path d="M105.803 69.7335C105.541 69.3688 105.214 68.9294 105.326 68.4618C105.495 67.7698 106.318 67.9475 106.692 68.359C107 68.7049 107.112 69.2473 106.72 69.5746C106.42 69.827 105.962 69.8738 105.691 69.5746C105.569 69.4437 105.373 69.64 105.495 69.7709C105.869 70.173 106.505 70.1356 106.907 69.7896C107.384 69.3782 107.327 68.6956 106.953 68.2374C106.579 67.7698 105.728 67.4332 105.261 67.9662C104.737 68.5647 105.177 69.3408 105.56 69.8738C105.663 70.0234 105.906 69.8831 105.803 69.7335Z" fill="#E8E8E8"/>
<path d="M42.919 89.2207C43.9663 89.5386 45.0323 89.7256 46.117 89.763C46.2946 89.7724 46.2946 89.4918 46.117 89.4825C45.051 89.4451 44.0037 89.2674 42.9938 88.9495C42.8161 88.8934 42.7413 89.1646 42.919 89.2207Z" fill="#E8E8E8"/>
<path d="M113.05 81.7402C119.409 81.6934 125.393 84.0686 131.397 85.8265C133.117 86.3315 134.856 86.7897 136.614 87.1356C136.792 87.173 136.867 86.9019 136.689 86.8645C130.452 85.6301 124.571 82.9839 118.296 81.9085C116.566 81.6093 114.808 81.441 113.05 81.4597C112.873 81.4597 112.873 81.7402 113.05 81.7402Z" fill="#E8E8E8"/>
<path d="M50.5393 41.1947C50.8666 41.9802 51.2687 43.7194 52.4469 42.9433C52.8396 42.6908 53.4194 41.9521 53.8401 42.5506C54.0926 42.9059 54.1113 43.3734 54.5882 43.5324C54.7565 43.5885 54.8313 43.3173 54.663 43.2612C54.2235 43.1116 54.2235 42.4383 53.8682 42.1672C53.6344 41.9895 53.3445 41.9989 53.0921 42.1298C52.718 42.3074 52.4469 42.7095 52.0541 42.8404C51.3528 43.0742 50.9975 41.5687 50.8105 41.1199C50.7357 40.9609 50.4645 41.0264 50.5393 41.1947Z" fill="#E8E8E8"/>
<path d="M53.4482 41.363C53.9718 40.9609 54.7386 41.148 55.0004 41.7558C55.1594 42.1392 55.281 42.3636 55.7298 42.3916C55.9449 42.401 56.1787 42.3262 56.3937 42.3636C56.8426 42.4384 56.8426 42.8311 56.9174 43.1958C56.9922 43.5605 57.1605 43.8784 57.5532 43.9252C57.7309 43.9439 57.7309 43.6634 57.5532 43.6446C57.0389 43.5885 57.254 42.5319 56.8519 42.2327C56.4218 41.9147 55.7766 42.3355 55.4399 41.9428C55.281 41.7558 55.2342 41.5033 55.0659 41.3163C54.935 41.1573 54.7573 41.0451 54.561 40.9703C54.1402 40.802 53.6726 40.8581 53.3173 41.1293C53.1583 41.2321 53.2986 41.4752 53.4482 41.363Z" fill="#E8E8E8"/>
<path d="M61.8635 50.1808C62.4526 50.3023 63.0792 49.9283 63.2381 49.3298C63.3877 48.7688 63.0231 48.2358 62.4901 48.0581C61.2464 47.6373 60.5544 49.3485 61.5643 50.0499C61.7139 50.1527 61.8542 49.9096 61.7046 49.8067C60.9939 49.3111 61.4334 48.0675 62.3404 48.3012C62.7332 48.4041 63.0605 48.7594 62.9856 49.1802C62.9015 49.6571 62.4152 50.0031 61.9383 49.9002C61.7607 49.8722 61.6859 50.1434 61.8635 50.1808Z" fill="#E8E8E8"/>
<path d="M62.7707 50.6578C62.5463 50.4801 62.2751 50.2838 62.1816 49.9939C62.0507 49.6011 62.4248 49.1336 62.8642 49.2458C63.1728 49.33 63.3879 49.6853 63.3131 50.0032C63.2196 50.3586 62.8175 50.5362 62.4809 50.4521C62.3032 50.4053 62.2284 50.6765 62.406 50.7233C62.8642 50.8355 63.3692 50.6204 63.5562 50.1716C63.7339 49.7321 63.4907 49.1991 63.0606 49.012C62.6305 48.8344 62.1349 49.0681 61.9479 49.4796C61.686 50.05 62.1629 50.5269 62.5837 50.8542C62.7053 50.9664 62.911 50.77 62.7707 50.6578Z" fill="#E8E8E8"/>
<path d="M44.1149 69.1257C43.6848 68.7423 43.6006 68.1625 44.0214 67.7324C44.3861 67.3677 44.9285 67.3771 45.2744 67.7604C45.9945 68.5646 44.9565 69.6119 44.1056 69.0602C43.956 68.9574 43.8157 69.2005 43.9653 69.3033C44.4703 69.6306 45.1622 69.5184 45.555 69.0696C45.9571 68.602 45.8355 67.9007 45.4054 67.4893C44.9472 67.0591 44.2646 67.0872 43.8251 67.5267C43.2921 68.0597 43.3762 68.8358 43.9186 69.322C44.0495 69.4436 44.2459 69.2472 44.1149 69.1257Z" fill="#E8E8E8"/>
<path d="M83.9789 42.6908C84.5213 41.5032 85.2787 40.4466 86.2138 39.5395C86.3447 39.418 86.1483 39.2123 86.0174 39.3432C85.0636 40.2689 84.2969 41.3443 83.7358 42.5599C83.661 42.7095 83.9041 42.8591 83.9789 42.6908Z" fill="#E8E8E8"/>
<path d="M85.1469 42.5038C85.7079 41.8118 86.3344 41.1666 87.0077 40.5775C87.148 40.456 86.9422 40.2596 86.8113 40.3811C86.1381 40.9703 85.5209 41.6155 84.9505 42.3074C84.8383 42.4477 85.0347 42.6441 85.1469 42.5038Z" fill="#E8E8E8"/>
<path d="M85.8579 43.3454C86.1104 43.1303 86.3629 42.9246 86.6153 42.7095C86.7556 42.5973 86.5499 42.3916 86.419 42.5132C86.1665 42.7282 85.914 42.9339 85.6615 43.149C85.5213 43.2612 85.7176 43.4576 85.8579 43.3454Z" fill="#E8E8E8"/>
</g>
<mask id="mask1_83_9753" style="mask-type:alpha" maskUnits="userSpaceOnUse" x="32" y="32" width="98" height="98">
<circle cx="80.9207" cy="80.9207" r="48.4207" fill="url(#paint2_linear_83_9753)"/>
</mask>
<g mask="url(#mask1_83_9753)">
<path d="M102.618 78.7061H101.863C101.714 78.7061 101.593 78.827 101.593 78.9762V89.1257C101.593 89.2749 101.714 89.3959 101.863 89.3959H102.618C102.767 89.3959 102.888 89.2749 102.888 89.1257V78.9762C102.888 78.827 102.767 78.7061 102.618 78.7061Z" fill="#EDEDED"/>
<path d="M97.6978 58.7012H63.552C61.0148 58.7012 58.958 60.7607 58.958 63.3014V142.289C58.958 144.829 61.0148 146.889 63.552 146.889H97.6978C100.235 146.889 102.292 144.829 102.292 142.289V63.3014C102.292 60.7607 100.235 58.7012 97.6978 58.7012Z" fill="#F4F4F4"/>
<path d="M97.0205 61.3218H92.0496V61.9205C92.0496 62.2933 91.9763 62.6623 91.8338 63.0066C91.6913 63.351 91.4825 63.6638 91.2192 63.9273C90.956 64.1907 90.6434 64.3997 90.2995 64.5422C89.9556 64.6847 89.587 64.7579 89.2147 64.7577H73.4062C73.034 64.7579 72.6654 64.6847 72.3214 64.5422C71.9775 64.3997 71.665 64.1907 71.4017 63.9273C71.1384 63.6638 70.9296 63.351 70.7871 63.0066C70.6446 62.6623 70.5713 62.2933 70.5713 61.9205V61.3218H65.9172C65.0044 61.3218 64.129 61.6849 63.4836 62.3311C62.8382 62.9774 62.4756 63.854 62.4756 64.768V141.475C62.4756 142.389 62.8382 143.266 63.4836 143.912C64.129 144.558 65.0044 144.921 65.9172 144.921H97.0205C97.9332 144.921 98.8086 144.558 99.454 143.912C100.099 143.266 100.462 142.389 100.462 141.475V64.7739C100.463 64.3208 100.374 63.872 100.202 63.4533C100.029 63.0345 99.7758 62.6539 99.4561 62.3332C99.1365 62.0126 98.7568 61.7582 98.3389 61.5847C97.9209 61.4111 97.4729 61.3218 97.0205 61.3218Z" fill="white"/>
<path d="M82.0415 61.3348H76.9023C76.6504 61.3348 76.4463 61.5393 76.4463 61.7914V62.108C76.4463 62.3602 76.6504 62.5646 76.9023 62.5646H82.0415C82.2933 62.5646 82.4975 62.3602 82.4975 62.108V61.7914C82.4975 61.5393 82.2933 61.3348 82.0415 61.3348Z" fill="#FEFEFE"/>
<path d="M84.1085 62.6482C84.4937 62.6482 84.806 62.3355 84.806 61.9498C84.806 61.5641 84.4937 61.2515 84.1085 61.2515C83.7234 61.2515 83.4111 61.5641 83.4111 61.9498C83.4111 62.3355 83.7234 62.6482 84.1085 62.6482Z" fill="#FEFEFE"/>
<path d="M80.8889 112.086C85.4163 112.086 89.0864 108.411 89.0864 103.877C89.0864 99.344 85.4163 95.6689 80.8889 95.6689C76.3616 95.6689 72.6914 99.344 72.6914 103.877C72.6914 108.411 76.3616 112.086 80.8889 112.086Z" fill="white"/>
<path d="M91.6723 84.7501C91.6722 86.92 91.0296 89.0411 89.8256 90.8452C88.6217 92.6493 86.9105 94.0554 84.9085 94.8857C82.9065 95.716 80.7035 95.9332 78.5782 95.5098C76.4529 95.0865 74.5007 94.0415 72.9685 92.5071C71.4363 90.9728 70.3929 89.0179 69.9702 86.8897C69.5475 84.7616 69.7646 82.5557 70.5939 80.551C71.4232 78.5464 72.8276 76.833 74.6294 75.6276C76.4311 74.4221 78.5494 73.7787 80.7164 73.7788C82.1552 73.7789 83.5799 74.0627 84.9091 74.6141C86.2384 75.1654 87.4462 75.9736 88.4635 76.9924C89.4809 78.0112 90.2879 79.2206 90.8384 80.5517C91.389 81.8828 91.6724 83.3094 91.6723 84.7501ZM79.4499 90.5573L87.5771 82.4191C87.6429 82.3534 87.6951 82.2754 87.7307 82.1895C87.7663 82.1036 87.7847 82.0115 87.7847 81.9184C87.7847 81.8254 87.7663 81.7333 87.7307 81.6474C87.6951 81.5615 87.6429 81.4835 87.5771 81.4178L86.5772 80.4238C86.5117 80.358 86.4339 80.3057 86.3482 80.2701C86.2625 80.2345 86.1707 80.2161 86.0779 80.2161C85.9851 80.2161 85.8932 80.2345 85.8076 80.2701C85.7219 80.3057 85.6441 80.358 85.5786 80.4238L78.9499 87.0614L75.8549 83.9549C75.722 83.8226 75.5423 83.7483 75.3549 83.7483C75.1675 83.7483 74.9878 83.8226 74.8549 83.9549L73.8549 84.9621C73.7228 85.0952 73.6486 85.2752 73.6486 85.4628C73.6486 85.6504 73.7228 85.8304 73.8549 85.9635L78.4501 90.5632C78.5157 90.629 78.5937 90.6813 78.6795 90.7169C78.7652 90.7526 78.8572 90.771 78.9501 90.771C79.043 90.771 79.135 90.7526 79.2208 90.7169C79.3066 90.6813 79.3845 90.629 79.4501 90.5632L79.4499 90.5573Z" fill="#0B5DB6"/>
</g>
<defs>
<linearGradient id="paint0_linear_83_9753" x1="126.197" y1="3.25892" x2="15.2069" y2="144.434" gradientUnits="userSpaceOnUse">
<stop stop-color="#1A72DD"/>
<stop offset="1" stop-color="#244DBB"/>
</linearGradient>
<linearGradient id="paint1_linear_83_9753" x1="126.197" y1="3.25892" x2="15.2069" y2="144.434" gradientUnits="userSpaceOnUse">
<stop stop-color="#1A72DD"/>
<stop offset="1" stop-color="#244DBB"/>
</linearGradient>
<linearGradient id="paint2_linear_83_9753" x1="126.197" y1="3.25892" x2="15.2069" y2="144.434" gradientUnits="userSpaceOnUse">
<stop stop-color="#1A72DD"/>
<stop offset="1" stop-color="#244DBB"/>
</linearGradient>
</defs>
</svg>
