<svg width="28" height="28" viewBox="0 0 28 28" fill="none" xmlns="http://www.w3.org/2000/svg">
<path d="M22.6512 10.3504C22.2142 9.91246 21.5195 9.88494 21.0497 10.2683C20.9818 10.3238 21.0344 10.2749 20 11.3109L22.6851 14L23.6501 13.0456C24.1166 12.5784 24.1166 11.8181 23.6501 11.3508L22.6512 10.3504Z" fill="#121212"/>
<path d="M14.6401 16.7389L13.0563 20.1436C12.9496 20.373 12.9973 20.6448 13.1757 20.8237C13.3541 21.0027 13.6251 21.0505 13.8537 20.9435L17.2475 19.3546C17.3818 19.2918 16.9753 19.6734 22 14.6957L19.3129 12C14.331 16.9978 14.704 16.6016 14.6401 16.7389Z" fill="#121212"/>
<path d="M18.2607 19.9676C18.1168 20.1093 17.951 20.2243 17.7678 20.3096L14.4446 21.8564C13.7911 22.1606 12.9927 22.0448 12.4531 21.5065C11.931 20.9858 11.79 20.1876 12.1022 19.5202L13.6531 16.2055C13.7402 16.0193 13.8583 15.8513 14.0039 15.706L19 10.7229V5.75781C19 4.78855 18.2094 4 17.2376 4H5.7624C4.79061 4 4 4.78855 4 5.75781V22.2422C4 23.2114 4.79061 24 5.7624 24H17.2376C18.2094 24 19 23.2114 19 22.2422V19.2394L18.2607 19.9676ZM7.1332 7.78906H15.906C16.2305 7.78906 16.4935 8.05141 16.4935 8.375C16.4935 8.69859 16.2305 8.96094 15.906 8.96094H7.1332C6.80876 8.96094 6.54573 8.69859 6.54573 8.375C6.54573 8.05141 6.80876 7.78906 7.1332 7.78906ZM7.1332 10.9141H14.0261C14.3506 10.9141 14.6136 11.1764 14.6136 11.5C14.6136 11.8236 14.3506 12.0859 14.0261 12.0859H7.1332C6.80876 12.0859 6.54573 11.8236 6.54573 11.5C6.54573 11.1764 6.80876 10.9141 7.1332 10.9141ZM6.54573 14.625C6.54573 14.3014 6.80876 14.0391 7.1332 14.0391H12.1463C12.4707 14.0391 12.7337 14.3014 12.7337 14.625C12.7337 14.9486 12.4707 15.2109 12.1463 15.2109H7.1332C6.80876 15.2109 6.54573 14.9486 6.54573 14.625Z" fill="#121212"/>
</svg>
